{"title":"A Walk Among the Tombstones(2014)MPEG-4[DaScubaDude]","uid":15288106,"size":1245391557,"categoryP":"video","categoryS":"movies","magnet":"?xt=urn:btih:abbaf568ac5530a9e2bd9de282cdcc41b90d75e6&amp;dn=A+Walk+Among+the+Tombstones%282014%29MPEG-4%5BDaScubaDude%5D&amp;tr=udp%3A%2F%2Ftracker.leechers-paradise.org%3A6969&amp;tr=udp%3A%2F%2Fzer0day.ch%3A1337&amp;tr=udp%3A%2F%2Fopen.demonii.com%3A1337&amp;tr=udp%3A%2F%2Ftracker.coppersurfer.tk%3A6969&amp;tr=udp%3A%2F%2Fexodus.desync.com%3A6969","seeders":0,"leechers":1,"uploader":"dascuba","files":1,"time":1468385036,"description":"A Walk Among the Tombstones (2014)\r\nR | 1h 54min | Crime, Drama, Mystery | 19 September 2014 (USA)\r\nPrivate investigator Matthew Scudder is hired by a drug kingpin to find out who kidnapped and murdered his wife.\r\nDirector: Scott Frank\r\nWriters: Scott Frank (screenplay), Lawrence Block (novel)\r\nStars: Liam Neeson, Dan Stevens, David Harbour |\r\n\r\nGeneral\r\nComplete name                            : Walk Among the TombstonesA_WALK_AMONG_THE_TOMBSTONES_Title12.mp4\r\nFormat                                   : MPEG-4\r\nFormat profile                           : Base Media\r\nCodec ID                                 : isom (isom/iso2/avc1/mp41)\r\nFile size                                : 1.16 GiB\r\nDuration                                 : 1h 54mn\r\nOverall bit rate                         : 1 456 Kbps\r\nMovie name                               : A_WALK_AMONG_THE_TOMBSTONES\r\nGenre                                    : Thriller\r\nWriting application                      : Lavf54.6.100\r\n\r\nVideo\r\nID                                       : 1\r\nFormat                                   : AVC\r\nFormat/Info                              : Advanced Video Codec\r\nFormat profile                           :   \r\nFormat settings, CABAC                   : No\r\nFormat settings, ReFrames                : 6 frames\r\nCodec ID                                 : avc1\r\nCodec ID/Info                            : Advanced Video Coding\r\nDuration                                 : 1h 54mn\r\nBit rate                                 : 1 194 Kbps\r\nWidth                                    : 720 pixels\r\nHeight                                   : 404 pixels\r\nDisplay aspect ratio                     : 16:9\r\nFrame rate mode                          : Constant\r\nFrame rate                               : 29.970 (30000/1001) fps\r\nColor space                              : YUV\r\nChroma subsampling                       : 4:2:0\r\nBit depth                                : 8 bits\r\nScan type                                : Progressive\r\nBits/(Pixel*Frame)                       : 0.137\r\nStream size                              : 973 MiB (82%)\r\n\r\nAudio\r\nID                                       : 2\r\nFormat                                   : AAC\r\nFormat/Info                              : Advanced Audio Codec\r\nFormat profile                           : LC\r\nCodec ID                                 : 40\r\nDuration                                 : 1h 54mn\r\nBit rate mode                            : Constant\r\nBit rate                                 : 256 Kbps\r\nChannel(s)                               : 2 channels\r\nChannel(s)_Original                      : 6 channels\r\nChannel positions                        : Front: L C R, Side: L R, LFE\r\nSampling rate                            : 44.1 KHz\r\nFrame rate                               : 43.066 fps (1024 spf)\r\nCompression mode                         : Lossy\r\nStream size                              : 209 MiB (18%)\r\nDefault                                  : Yes\r\nAlternate group                          : 1","torrent":{"xt":"urn:btih:abbaf568ac5530a9e2bd9de282cdcc41b90d75e6","amp;dn":"A+Walk+Among+the+Tombstones%282014%29MPEG-4%5BDaScubaDude%5D","amp;tr":["udp%3A%2F%2Ftracker.leechers-paradise.org%3A6969","udp%3A%2F%2Fzer0day.ch%3A1337","udp%3A%2F%2Fopen.demonii.com%3A1337","udp%3A%2F%2Ftracker.coppersurfer.tk%3A6969","udp%3A%2F%2Fexodus.desync.com%3A6969"],"infoHash":"abbaf568ac5530a9e2bd9de282cdcc41b90d75e6","infoHashBuffer":{"type":"Buffer","data":[171,186,245,104,172,85,48,169,226,189,157,226,130,205,204,65,185,13,117,230]},"announce":[],"urlList":[]}}